# xmcd CD database file generated by OrangeCD 5.2
#
# Track frame offsets:
#	150
#	15136
#	27417
#	43434
#	57956
#	80509
#	97213
#	112021
#	125951
#	144912
#	160306
#
# Disc length: 2343 seconds
#
# Revision: 0
# Processed by: cddbd v1.5.1PL0 Copyright (c) Steve Scherf et al.
# Submitted via: OrangeCD 5.2
#
DISCID=9909250b
DTITLE=Diamond Rio - Platinum Collection
DYEAR=1900
DGENRE=
TTITLE0=Meet in the Middle 
TTITLE1=This State of Mind 
TTITLE2=They Don't Make Hearts (Like They Used To) 
TTITLE3=Mirror Mirror 
TTITLE4=Ballad of Conley and Billy (The Proof's in the Pickin') 
TTITLE5=Nowhere Bound
TTITLE6=It's Gone 
TTITLE7=Norma Jean Riley 
TTITLE8=Mama Don't Forget to Pray for Me 
TTITLE9=Pick Me Up
TTITLE10=Poultry Promenade 
EXTD=
EXTT0=
EXTT1=
EXTT2=
EXTT3=
EXTT4=
EXTT5=
EXTT6=
EXTT7=
EXTT8=
EXTT9=
EXTT10=
PLAYORDER=
